<svg width="139" height="139" viewBox="0 0 139 139" fill="none" xmlns="http://www.w3.org/2000/svg">
<path d="M69.2304 0H68.9158C30.8547 0 0 30.8563 0 68.9194V69.234C0 107.297 30.8547 138.153 68.9158 138.153H69.2304C107.292 138.153 138.146 107.297 138.146 69.234V68.9194C138.146 30.8563 107.292 0 69.2304 0Z" fill="#00E510"/>
<path d="M82.5381 89.2822C64.8579 89.2822 50.4736 74.8924 50.4688 57.2112C50.4736 52.7291 54.1229 49.0845 58.595 49.0845C59.0548 49.0845 59.5097 49.1232 59.9453 49.2006C60.9036 49.3604 61.8136 49.6847 62.6509 50.1735C62.7719 50.2461 62.8541 50.3623 62.8735 50.4978L64.7417 62.274C64.7659 62.4143 64.7224 62.5499 64.6304 62.6515C63.5995 63.7938 62.283 64.6166 60.8165 65.028L60.1099 65.2265L60.3761 65.909C62.7864 72.0463 67.6941 76.9494 73.836 79.3695L74.5184 79.6406L74.7168 78.9339C75.1282 77.4673 75.951 76.1508 77.0932 75.1198C77.1755 75.0424 77.2868 75.0037 77.3981 75.0037C77.4223 75.0037 77.4465 75.0037 77.4756 75.0085L89.2511 76.8768C89.3915 76.901 89.5077 76.9785 89.5803 77.0995C90.0643 77.9368 90.3885 78.8516 90.5531 79.81C90.6305 80.2359 90.6644 80.6861 90.6644 81.1556C90.6644 85.6327 87.0199 89.2774 82.5381 89.2822Z" fill="#FDFDFD"/>
<path d="M113.89 65.1974C112.936 54.4231 108 44.4282 99.9895 37.0566C91.931 29.6414 81.4767 25.5563 70.5433 25.5563C46.547 25.5563 27.0227 45.0816 27.0227 69.0792C27.0227 77.1333 29.2442 84.9792 33.4501 91.8136L24.0703 112.578L54.1021 109.379C59.3244 111.518 64.8516 112.602 70.5385 112.602C72.034 112.602 73.5683 112.525 75.1074 112.365C76.4626 112.22 77.8323 112.007 79.1778 111.736C99.2732 107.675 113.943 89.8388 114.059 69.3116V69.0792C114.059 67.7724 114.001 66.4655 113.885 65.1974H113.89ZM55.2589 100.265L38.6434 102.036L43.6043 91.044L42.6121 89.7129C42.5395 89.6161 42.4669 89.5193 42.3847 89.408C38.0771 83.4594 35.8023 76.4315 35.8023 69.0841C35.8023 49.9266 51.3869 34.3412 70.5433 34.3412C88.4898 34.3412 103.702 48.3439 105.168 66.2187C105.246 67.177 105.289 68.1402 105.289 69.0889C105.289 69.36 105.284 69.6262 105.28 69.9117C104.912 85.9376 93.7169 99.5482 78.0549 103.014C76.8595 103.28 75.6349 103.483 74.4153 103.614C73.1472 103.759 71.8453 103.832 70.553 103.832C65.9503 103.832 61.4782 102.941 57.2529 101.179C56.7834 100.991 56.3236 100.787 55.8929 100.579L55.2637 100.274L55.2589 100.265Z" fill="#FDFDFD"/>
</svg>
