<svg width="139" height="139" viewBox="0 0 139 139" fill="none" xmlns="http://www.w3.org/2000/svg">
<path d="M138.141 69.0792C138.141 103.967 112.282 132.81 78.6876 137.49C75.5465 137.926 72.3328 138.153 69.0707 138.153C65.3052 138.153 61.6075 137.853 58.0066 137.273C25.1192 131.977 0 103.459 0 69.0792C0 30.9288 30.9272 0 69.0755 0C107.224 0 138.151 30.9288 138.151 69.0792H138.141Z" fill="#1877F7"/>
<path d="M78.6881 55.4685V70.5166H97.3025L94.355 90.7873H78.6881V137.49C75.547 137.926 72.3333 138.153 69.0712 138.153C65.3057 138.153 61.608 137.853 58.0071 137.273V90.7873H40.8398V70.5166H58.0071V52.1046C58.0071 40.6817 67.2659 31.4176 78.6929 31.4176V31.4273C78.7268 31.4273 78.7559 31.4176 78.7897 31.4176H97.3073V48.9488H85.2075C81.6114 48.9488 78.6929 51.8674 78.6929 55.4636L78.6881 55.4685Z" fill="white"/>
</svg>
