<svg width="139" height="139" viewBox="0 0 139 139" fill="none" xmlns="http://www.w3.org/2000/svg">
<path d="M69.2304 0H68.9158C30.8547 0 0 30.8563 0 68.9194V69.234C0 107.297 30.8547 138.153 68.9158 138.153H69.2304C107.291 138.153 138.146 107.297 138.146 69.234V68.9194C138.146 30.8563 107.291 0 69.2304 0Z" fill="url(#paint0_linear_2330_235)"/>
<path d="M90.4481 28.1069H47.7019C35.8924 28.1069 26.2852 37.7147 26.2852 49.5248V88.6335C26.2852 100.444 35.8924 110.051 47.7019 110.051H90.4481C102.258 110.051 111.865 100.444 111.865 88.6335V49.5248C111.865 37.7147 102.258 28.1069 90.4481 28.1069ZM33.8403 49.5248C33.8403 41.8821 40.0596 35.6625 47.7019 35.6625H90.4481C98.0904 35.6625 104.31 41.8821 104.31 49.5248V88.6335C104.31 96.2761 98.0904 102.496 90.4481 102.496H47.7019C40.0596 102.496 33.8403 96.2761 33.8403 88.6335V49.5248Z" fill="white"/>
<path d="M69.0735 88.9965C80.0553 88.9965 88.9947 80.0615 88.9947 69.0743C88.9947 58.0871 80.0602 49.1521 69.0735 49.1521C58.0869 49.1521 49.1523 58.0871 49.1523 69.0743C49.1523 80.0615 58.0869 88.9965 69.0735 88.9965ZM69.0735 56.7125C75.893 56.7125 81.4395 62.2593 81.4395 69.0791C81.4395 75.899 75.893 81.4458 69.0735 81.4458C62.2541 81.4458 56.7075 75.899 56.7075 69.0791C56.7075 62.2593 62.2541 56.7125 69.0735 56.7125Z" fill="white"/>
<path d="M90.8401 52.3708C93.7973 52.3708 96.2076 49.9652 96.2076 47.003C96.2076 44.0408 93.8022 41.6353 90.8401 41.6353C87.8781 41.6353 85.4727 44.0408 85.4727 47.003C85.4727 49.9652 87.8781 52.3708 90.8401 52.3708Z" fill="white"/>
<defs>
<linearGradient id="paint0_linear_2330_235" x1="20.1825" y1="117.97" x2="117.969" y2="20.1936" gradientUnits="userSpaceOnUse">
<stop stop-color="#FAAD4F"/>
<stop offset="0.35" stop-color="#DD2A7B"/>
<stop offset="0.62" stop-color="#9537B0"/>
<stop offset="1" stop-color="#515BD4"/>
</linearGradient>
</defs>
</svg>
